<svg width="61" height="67" viewBox="0 0 61 67" fill="none" xmlns="http://www.w3.org/2000/svg">
<path fill-rule="evenodd" clip-rule="evenodd" d="M49.8622 30.0781L49.8622 64.7799C49.8622 65.5214 49.2276 66.1232 48.4456 66.1232H41.2338C40.4518 66.1232 39.8172 65.5214 39.8172 64.7794L39.8172 31.7573C39.8172 31.0158 40.4518 30.414 41.2338 30.414H43.0052L43.0052 12.0758C43.0052 11.3343 43.6398 10.7321 44.4218 10.7321L53.0358 10.7321C54.8777 10.7321 56.1671 9.07976 56.9179 7.7365L48.6721 7.7365C47.8902 7.7365 47.2555 7.13474 47.2555 6.39278V3.08811L25.7197 3.08811L8.63294 10.2487L30.8485 10.2487C31.6305 10.2487 32.2656 10.8504 32.2656 11.592V12.8282H33.9799C34.7619 12.8282 35.3965 13.43 35.3965 14.1715C35.3965 14.913 34.7619 15.5148 33.9799 15.5148H32.2656V18.7662H33.9799C34.7619 18.7662 35.3965 19.3684 35.3965 20.1099C35.3965 20.8514 34.7619 21.4532 33.9799 21.4532H32.2656V24.7046H33.9799C34.7619 24.7046 35.3965 25.3063 35.3965 26.0479C35.3965 26.7894 34.7619 27.3911 33.9799 27.3911H32.2656L32.2656 30.414H33.4412C34.2232 30.414 34.8583 31.0158 34.8583 31.7573L34.8583 64.7794C34.8583 65.521 34.2232 66.1227 33.4412 66.1227H25.2944C24.5124 66.1227 23.8778 65.521 23.8778 64.7794L23.8778 44.4261C19.6894 42.5075 15.2408 41.1519 10.6587 40.3959C3.4614 39.2807 1.56282 34.2831 1.56282 31.7978C1.56282 31.0558 2.19744 30.4541 2.97944 30.4541L29.4319 30.4541L29.4319 12.9894L1.9171 12.9894C1.23687 13.0039 0.643055 12.5579 0.5 11.9279V11.6457C0.504322 11.1149 0.837475 10.6356 1.35016 10.4235L24.8551 0.522203C25.0337 0.445276 25.2267 0.403854 25.4221 0.401123L48.6721 0.401123C49.4541 0.401123 50.0892 1.00288 50.0888 1.74439V5.04952L59.0147 4.95575C59.1679 4.95028 59.3224 4.96758 59.4698 5.00809C60.2206 5.21748 60.6512 5.96308 60.4318 6.675C60.3469 6.98407 58.3067 13.3927 53.0502 13.3927H45.8672V21.2383L53.7731 21.2383C59.4401 21.5205 60.4885 28.2778 60.4885 28.56C60.4971 28.6219 60.5 28.6852 60.5 28.7467C60.4942 29.4882 59.8539 30.0849 59.0719 30.0781L49.8622 30.0781ZM32.0247 35.7881V33.1012L4.66589 33.0875C5.19011 34.6192 6.69168 37.0103 11.1263 37.6954C16.3008 38.5552 21.3062 40.1538 25.9746 42.438C26.4297 42.6742 26.713 43.1285 26.7115 43.6201L26.7115 63.4093H32.0247V62.2267H30.3104C29.5279 62.2267 28.8933 61.625 28.8933 60.8835C28.8933 60.142 29.5279 59.5402 30.3104 59.5402H32.0247V56.2888H30.3104C29.5279 56.2888 28.8933 55.6871 28.8933 54.9456C28.8933 54.2041 29.5279 53.6019 30.3104 53.6019H32.0247V50.3509H30.3104C29.5279 50.3509 28.8933 49.7492 28.8933 49.0077C28.8933 48.2657 29.5279 47.664 30.3104 47.664H32.0247L32.0247 44.413H30.3104C29.5279 44.413 28.8933 43.8113 28.8933 43.0693C28.8933 42.3278 29.5279 41.7261 30.3104 41.7261H32.0247V38.4751H30.3104C29.5279 38.4751 28.8933 37.8729 28.8933 37.1314C28.8933 36.3899 29.5279 35.7881 30.3104 35.7881H32.0247ZM45.8384 30.4142V23.858L53.6738 23.858C55.7279 23.9655 56.7624 25.9 57.2583 27.3375L48.4311 27.3375C47.6491 27.3375 47.0145 27.9393 47.0145 28.6813V30.3605L45.8384 30.4142ZM42.6509 33.1011L42.6509 63.4362H47.0284L47.0284 33.1011H42.6509Z" fill="#FF7F00"/>
</svg>
