<svg width="61" height="65" viewBox="0 0 61 65" fill="none" xmlns="http://www.w3.org/2000/svg">
<path fill-rule="evenodd" clip-rule="evenodd" d="M60.1253 30.6347L57.4018 29.5425V27.806C57.4401 17.1479 50.2284 7.63846 39.4391 4.12127V1.6739C39.4391 0.947454 38.8068 0.35791 38.0283 0.35791H22.9296C22.1511 0.35791 21.5189 0.947454 21.5189 1.6739V4.1342C10.7295 7.65139 3.51785 17.1608 3.55611 27.8189V29.5688L0.860812 30.6347C0.338586 30.8402 0 31.3179 0 31.8454V38.7536C0 39.4796 0.632218 40.0691 1.41125 40.0691H3.24574V42.7011C3.24574 43.4271 3.87748 44.0167 4.65651 44.0167H9.72239C10.2035 45.664 10.9103 47.2485 11.8247 48.7272L8.24084 52.0696C7.69327 52.5824 7.69327 53.4115 8.24084 53.9248L14.2378 59.5169C14.7878 60.0275 15.6768 60.0275 16.2273 59.5169L19.8111 56.175C21.3931 57.0277 23.0865 57.6854 24.8488 58.1354V62.8593C24.8488 63.5853 25.481 64.1749 26.26 64.1749H34.7261C35.5051 64.1749 36.1374 63.5853 36.1374 62.8593V58.1354C37.9039 57.6868 39.6026 57.029 41.1889 56.175L44.7732 59.5169C45.3232 60.0275 46.2122 60.0275 46.7626 59.5169L52.7596 53.9248C53.3072 53.4115 53.3072 52.5824 52.7596 52.0696L49.1753 48.7272C50.0897 47.2485 50.797 45.664 51.2781 44.0167H56.3435C57.1225 44.0167 57.7547 43.4271 57.7547 42.7011V40.0691H59.5892C60.3683 40.0691 61 39.4796 61 38.7536V31.8454C60.9971 31.3138 60.6519 30.8362 60.1253 30.6347ZM24.3126 3.00281H36.6171V24.9898H24.3408L24.3126 3.00281ZM50.2479 41.3851H54.9465L54.9327 40.0692H42.0215C41.3778 45.0219 37.1913 48.9248 31.8801 49.5259C25.5049 50.2484 19.7097 46.0141 18.9364 40.0692H6.03955V41.3851H10.7381C11.4153 41.3704 12.0064 41.8075 12.1494 42.4242C12.6415 44.4782 13.5305 46.431 14.7739 48.1876C15.1364 48.7076 15.0589 49.393 14.5903 49.8323L11.2178 52.9771L15.211 56.7012L18.5835 53.5564C19.055 53.1194 19.7901 53.0471 20.3477 53.3852C22.2424 54.5353 24.3466 55.3509 26.556 55.7933C27.2179 55.9262 27.6866 56.4774 27.6708 57.1088V61.5826H33.3148V57.1485C33.2995 56.5171 33.7677 55.9654 34.4296 55.8325C36.6395 55.3893 38.7432 54.5732 40.6384 53.4249C41.196 53.0864 41.9311 53.1591 42.4021 53.5956L45.7746 56.7405L49.8104 53.0034L46.4379 49.8586C45.9697 49.4193 45.8918 48.7339 46.2547 48.2139C47.4866 46.4467 48.3613 44.4849 48.8367 42.4242C48.9792 41.8075 49.5708 41.3704 50.2479 41.3851ZM21.8149 40.0692H39.1851C38.4089 44.5456 33.8877 47.5879 29.0878 46.8642C25.3428 46.2996 22.4065 43.5614 21.801 40.0692H21.8149ZM2.80811 37.4377H58.1918V32.7401L55.4687 31.6479C54.9465 31.4428 54.6079 30.9652 54.6079 30.4376V27.8056C54.6476 18.6043 48.6406 10.3173 39.4672 6.92358V26.3059C39.4672 27.0319 38.835 27.6214 38.056 27.6214H22.9296C22.1505 27.6214 21.5188 27.0319 21.5188 26.3059V6.92358C12.3607 10.3186 6.36087 18.5896 6.39195 27.7793V30.4109C6.39195 30.9389 6.05337 31.4165 5.53114 31.6216L2.80811 32.7137V37.4377Z" fill="#FF7F00"/>
</svg>
