<svg width="62" height="68" viewBox="0 0 62 68" fill="none" xmlns="http://www.w3.org/2000/svg">
<path fill-rule="evenodd" clip-rule="evenodd" d="M19.8829 66.084L19.8829 19.3582L43.1004 19.3582C43.873 19.3582 44.5 18.7589 44.5 18.0197V2.08752C44.5 1.34838 43.873 0.748535 43.1004 0.748535L1.89964 0.748535C1.12701 0.748535 0.5 1.34838 0.5 2.08752L0.5 66.084C0.5 66.8231 1.12701 67.423 1.89964 67.423L18.4832 67.423C19.2558 67.423 19.8829 66.8231 19.8829 66.084ZM41.7007 3.42603V16.6805L19.0571 16.6805L5.27234 3.42603L41.7007 3.42603ZM3.29932 5.32727L3.29932 64.7453L17.0841 64.9327V60.5142H13.6132C12.8406 60.5142 12.2136 59.9148 12.2136 59.1757C12.2136 58.4366 12.8406 57.8367 13.6132 57.8367H17.0841V55.1592H13.6132C12.8406 55.1592 12.2136 54.5594 12.2136 53.8202C12.2136 53.0811 12.8406 52.4812 13.6132 52.4812H17.0841V49.8037H10.6466C9.87394 49.8037 9.24693 49.2039 9.24693 48.4647C9.24693 47.726 9.87394 47.1262 10.6466 47.1262H17.0841L17.0841 44.4482H13.6132C12.8406 44.4482 12.2136 43.8484 12.2136 43.1097C12.2136 42.3705 12.8406 41.7707 13.6132 41.7707H17.0841V39.0932H13.6132C12.8406 39.0932 12.2136 38.4933 12.2136 37.7542C12.2136 37.0151 12.8406 36.4152 13.6132 36.4152H17.0841V33.7377H10.6466C9.87394 33.7377 9.24693 33.1379 9.24693 32.3987C9.24693 31.6596 9.87394 31.0602 10.6466 31.0602L17.0841 31.0602V28.3822L13.6132 28.3822C12.8406 28.3822 12.2136 27.7824 12.2136 27.0432C12.2136 26.3045 12.8406 25.7047 13.6132 25.7047L17.0841 25.7047V23.0267L13.6132 23.0267C12.8406 23.0267 12.2136 22.4273 12.2136 21.6882C12.2136 20.9491 12.8406 20.3492 13.6132 20.3492L17.0841 20.3492V18.5152L3.29932 5.32727Z" fill="#FF7F00"/>
<path fill-rule="evenodd" clip-rule="evenodd" d="M21.5 34.4773L21.5 34.4809L21.5 34.4911V34.4773ZM21.5 34.4809C21.5037 34.7677 21.602 35.0466 21.7806 35.2759L31.7037 48.3227C31.7037 48.3227 31.816 48.4038 31.8721 48.458C31.8939 48.479 31.9094 48.5001 31.9242 48.5204C31.9475 48.5522 31.9694 48.5821 32.0124 48.607L51.4509 62.3982C52.895 63.6367 54.9512 63.9587 56.7278 63.2239C57.6639 62.7757 58.4653 62.106 59.058 61.2749L60.2367 59.6915C61.0044 58.7549 61.4467 57.6087 61.5 56.4161C61.4424 54.757 60.533 53.2342 59.0718 52.3558L39.5772 38.6188C39.4973 38.5743 39.4116 38.539 39.3246 38.5105C39.3246 38.5105 39.2404 38.5105 39.1981 38.4293L23.3527 33.205C22.6187 32.9655 21.8215 33.3458 21.5747 34.0535C21.5263 34.1911 21.5012 34.3353 21.5 34.4809ZM57.4155 54.5758C58.1299 54.9638 58.6099 55.6569 58.7069 56.4431C58.6479 57.0618 58.3939 57.6476 57.9773 58.1214L56.7981 59.6644C56.4866 60.1217 56.0628 60.4997 55.5629 60.7607L55.5533 60.7648C55.2911 60.8774 54.5208 61.2083 53.1209 60.2194L51.858 59.3259L54.0051 56.511L56.1384 53.6823L57.4155 54.5758ZM52.5597 53.8044L53.8792 52.0719L39.0858 41.6099L34.7911 47.2402L49.5845 57.7023L50.9035 55.9831L39.4792 47.8626C39.4297 47.8314 39.3836 47.7989 39.3389 47.7622C38.7438 47.2847 38.6634 46.4306 39.1591 45.8568C39.6542 45.283 40.5399 45.2046 41.1349 45.6834L52.5597 53.8044ZM36.5178 40.3916L32.8263 45.2371L30.5388 42.2323L32.8543 39.1871L36.5178 40.3916ZM28.7984 39.9448L30.0756 38.267L26.679 37.157L28.7984 39.9448Z" fill="#FF7F00"/>
</svg>
